<svg width="24" height="24" viewBox="0 0 24 24" fill="none" xmlns="http://www.w3.org/2000/svg">
<path d="M13.8701 20.81C13.5101 20.81 13.1601 20.7 12.8501 20.48L7.69011 16.8C7.69011 16.8 7.60011 16.75 7.54011 16.75H4.86011C3.90011 16.75 3.11011 15.96 3.11011 15V9.00002C3.11011 8.04002 3.90011 7.25002 4.86011 7.25002H7.54011C7.59011 7.25002 7.64011 7.23002 7.69011 7.20002L12.8501 3.52002C13.3901 3.14002 14.0801 3.09002 14.6701 3.39002C15.2601 3.69002 15.6201 4.29002 15.6201 4.95002V19.06C15.6201 19.72 15.2601 20.31 14.6701 20.62C14.4201 20.75 14.1401 20.82 13.8701 20.82V20.81ZM4.88011 8.75002C4.74011 8.75002 4.63011 8.86002 4.63011 9.00002V15C4.63011 15.14 4.74011 15.25 4.88011 15.25H7.56011C7.93011 15.25 8.28011 15.36 8.58011 15.58L13.7401 19.26C13.8501 19.34 13.9501 19.3 14.0001 19.28C14.0501 19.25 14.1401 19.19 14.1401 19.06V4.94002C14.1401 4.81002 14.0601 4.74002 14.0001 4.72002C13.9501 4.69002 13.8501 4.66002 13.7401 4.74002L8.58011 8.42002C8.28011 8.63002 7.93011 8.75002 7.56011 8.75002H4.88011Z" fill="#222C43"/>
<path d="M17.8799 17.25C17.6499 17.25 17.4299 17.15 17.2799 16.95C17.0299 16.62 17.0999 16.15 17.4299 15.9C18.6699 14.97 19.3799 13.55 19.3799 12C19.3799 10.45 18.6699 9.03003 17.4299 8.10003C17.0999 7.85003 17.0299 7.38003 17.2799 7.05003C17.5299 6.72003 17.9999 6.65003 18.3299 6.90003C19.9499 8.12003 20.8799 9.98003 20.8799 12C20.8799 14.02 19.9499 15.88 18.3299 17.1C18.1899 17.2 18.0399 17.25 17.8799 17.25Z" fill="#222C43"/>
</svg>
